<svg id="Lager_1" data-name="Lager 1" xmlns="http://www.w3.org/2000/svg" viewBox="0 0 100 100"><defs><style>.cls-1,.cls-6{fill:#dbcfe9;}.cls-1,.cls-10,.cls-2,.cls-3,.cls-4,.cls-5,.cls-6,.cls-7,.cls-8,.cls-9{stroke:#000;stroke-linejoin:round;}.cls-1,.cls-2,.cls-3{stroke-width:1.18px;}.cls-2,.cls-4,.cls-7,.cls-8{fill:none;}.cls-10,.cls-2,.cls-3,.cls-4,.cls-5,.cls-7,.cls-8,.cls-9{stroke-linecap:round;}.cls-3,.cls-5,.cls-9{fill:#50dab0;}.cls-4{stroke-width:0.96px;}.cls-5,.cls-6,.cls-7{stroke-width:1.13px;}.cls-10,.cls-8,.cls-9{stroke-width:1.36px;}.cls-10{fill:#c966cd;}</style></defs><ellipse class="cls-1" cx="67.41" cy="46.23" rx="14.88" ry="16.85"/><ellipse class="cls-2" cx="67.41" cy="46.23" rx="10.91" ry="12.88"/><rect class="cls-2" x="38.65" y="63.11" width="57.52" height="3.97"/><rect class="cls-3" x="40.62" y="67.08" width="53.55" height="4.97"/><path class="cls-2" d="M52.53,46.23A17.84,17.84,0,0,1,41.62,63.08H93.2A17.84,17.84,0,0,1,82.29,46.23"/><line class="cls-2" x1="62.44" y1="51.2" x2="72.35" y2="41.29"/><line class="cls-2" x1="61.44" y1="46.23" x2="67.41" y2="40.29"/><line class="cls-2" x1="67.41" y1="52.2" x2="73.35" y2="46.23"/><path class="cls-2" d="M42.62,72V78a2,2,0,0,0,.59,1.41l1.41,1.41V90.87h4V72Z"/><path class="cls-2" d="M92.2,72V78a2,2,0,0,1-.58,1.41L90.2,80.78V90.87h-4V72Z"/><line class="cls-4" x1="59.47" y1="51" x2="65.48" y2="51"/><polygon class="cls-5" points="37.78 52.06 6.42 52.06 16.61 39.49 27.59 39.49 37.78 52.06"/><path class="cls-6" d="M29.15,85.77H23.66V52.06H20.52V85.77H15a2.34,2.34,0,0,0-2.35,2.35H31.5A2.35,2.35,0,0,0,29.15,85.77Z"/><line class="cls-7" x1="28.36" y1="52.06" x2="28.36" y2="61.45"/><rect class="cls-7" x="26.8" y="61.45" width="3.14" height="4.7"/><polygon class="cls-8" points="45.28 28.4 35.8 28.4 33.45 26.02 47.66 26.02 45.28 28.4"/><rect class="cls-9" x="38.75" y="9.46" width="3.57" height="16.59"/><path class="cls-8" d="M40.56,28.4v0Z"/><polygon class="cls-10" points="47.66 37.89 33.45 37.89 35.8 33.13 45.28 33.13 47.66 37.89"/></svg>