<svg id="Lager_1" data-name="Lager 1" xmlns="http://www.w3.org/2000/svg" viewBox="0 0 100 100"><defs><style>.cls-2,.cls-7,.cls-8{stroke:#000;stroke-linejoin:round}.cls-2{stroke-width:1.18px}.cls-2,.cls-7,.cls-8{fill:none}.cls-2,.cls-7,.cls-8{stroke-linecap:round}.cls-7{stroke-width:1.13px}.cls-8{stroke-width:1.36px}</style></defs><ellipse cx="67.41" cy="46.23" rx="14.88" ry="16.85" style="stroke-width:1.18px;stroke:#000;stroke-linejoin:round;fill:#dbcfe9"/><ellipse class="cls-2" cx="67.41" cy="46.23" rx="10.91" ry="12.88"/><path class="cls-2" d="M38.65 63.11h57.52v3.97H38.65z"/><path style="fill:#50dab0;stroke-linecap:round;stroke-width:1.18px;stroke:#000;stroke-linejoin:round" d="M40.62 67.08h53.55v4.97H40.62z"/><path class="cls-2" d="M52.53 46.23a17.84 17.84 0 0 1-10.91 16.85H93.2a17.84 17.84 0 0 1-10.91-16.85M62.44 51.2l9.91-9.91M61.44 46.23l5.97-5.94M67.41 52.2l5.94-5.97M42.62 72v6a2 2 0 0 0 .59 1.41l1.41 1.41v10.05h4V72ZM92.2 72v6a2 2 0 0 1-.58 1.41l-1.42 1.37v10.09h-4V72Z"/><path style="stroke-width:.96px;stroke-linecap:round;fill:none;stroke:#000;stroke-linejoin:round" d="M59.47 51h6.01"/><path style="stroke-width:1.13px;fill:#50dab0;stroke-linecap:round;stroke:#000;stroke-linejoin:round" d="M37.78 52.06H6.42l10.19-12.57h10.98l10.19 12.57z"/><path d="M29.15 85.77h-5.49V52.06h-3.14v33.71H15a2.34 2.34 0 0 0-2.35 2.35H31.5a2.35 2.35 0 0 0-2.35-2.35Z" style="stroke-width:1.13px;stroke:#000;stroke-linejoin:round;fill:#dbcfe9"/><path class="cls-7" d="M28.36 52.06v9.39M26.8 61.45h3.14v4.7H26.8z"/><path class="cls-8" d="M45.28 28.4H35.8l-2.35-2.38h14.21l-2.38 2.38z"/><path style="stroke-width:1.36px;fill:#50dab0;stroke-linecap:round;stroke:#000;stroke-linejoin:round" d="M38.75 9.46h3.57v16.59h-3.57z"/><path class="cls-8" d="M40.56 28.4v0Z"/><path style="fill:#c966cd;stroke-width:1.36px;stroke-linecap:round;stroke:#000;stroke-linejoin:round" d="M47.66 37.89H33.45l2.35-4.76h9.48l2.38 4.76z"/></svg>